{
	"asset":{
		"generator":"Khronos glTF Blender I/O v4.3.47",
		"version":"2.0"
	},
	"extensionsUsed":[
		"KHR_materials_specular",
		"KHR_materials_ior"
	],
	"scene":0,
	"scenes":[
		{
			"name":"Scene",
			"nodes":[
				0
			]
		}
	],
	"nodes":[
		{
			"mesh":0,
			"name":"1,2-dichloropropane.sdf",
			"rotation":[
				0.7071068286895752,
				0,
				0,
				0.7071068286895752
			],
			"translation":[
				-0.5174539685249329,
				-0.294599711894989,
				-0.22405171394348145
			]
		}
	],
	"materials":[
		{
			"doubleSided":true,
			"extensions":{
				"KHR_materials_specular":{
					"specularFactor":0.5
				},
				"KHR_materials_ior":{
					"ior":0.0010000000474974513
				}
			},
			"name":"k000000",
			"pbrMetallicRoughness":{
				"baseColorFactor":[
					0,
					0,
					0,
					1
				],
				"metallicFactor":0,
				"roughnessFactor":0.5962674021720886
			}
		},
		{
			"doubleSided":true,
			"extensions":{
				"KHR_materials_specular":{
					"specularFactor":0.5
				},
				"KHR_materials_ior":{
					"ior":0.0010000000474974513
				}
			},
			"name":"k1ff01f",
			"pbrMetallicRoughness":{
				"baseColorFactor":[
					0.125,
					0.9409999847412109,
					0.125,
					1
				],
				"metallicFactor":0,
				"roughnessFactor":0.5962674021720886
			}
		},
		{
			"doubleSided":true,
			"extensions":{
				"KHR_materials_specular":{
					"specularFactor":0.5
				},
				"KHR_materials_ior":{
					"ior":0.0010000000474974513
				}
			},
			"name":"kffffff",
			"pbrMetallicRoughness":{
				"metallicFactor":0,
				"roughnessFactor":0.5962674021720886
			}
		},
		{
			"doubleSided":true,
			"extensions":{
				"KHR_materials_specular":{
					"specularFactor":0.5
				},
				"KHR_materials_ior":{
					"ior":0.0010000000474974513
				}
			},
			"name":"k808080",
			"pbrMetallicRoughness":{
				"baseColorFactor":[
					0.5040000081062317,
					0.5040000081062317,
					0.5040000081062317,
					1
				],
				"metallicFactor":0,
				"roughnessFactor":0.5962674021720886
			}
		}
	],
	"meshes":[
		{
			"name":"1,2-dichloropropane.sdf",
			"primitives":[
				{
					"attributes":{
						"POSITION":0,
						"NORMAL":1
					},
					"indices":2,
					"material":0
				},
				{
					"attributes":{
						"POSITION":3,
						"NORMAL":4
					},
					"indices":5,
					"material":1
				},
				{
					"attributes":{
						"POSITION":6,
						"NORMAL":7
					},
					"indices":8,
					"material":2
				},
				{
					"attributes":{
						"POSITION":9,
						"NORMAL":10
					},
					"indices":11,
					"material":3
				}
			]
		}
	],
	"accessors":[
		{
			"bufferView":0,
			"componentType":5126,
			"count":1926,
			"max":[
				0.8528720736503601,
				0.5410653352737427,
				1.3514454364776611
			],
			"min":[
				-1.2181278467178345,
				-1.0658345222473145,
				-0.9719544649124146
			],
			"type":"VEC3"
		},
		{
			"bufferView":1,
			"componentType":5126,
			"count":1926,
			"type":"VEC3"
		},
		{
			"bufferView":2,
			"componentType":5123,
			"count":11520,
			"type":"SCALAR"
		},
		{
			"bufferView":3,
			"componentType":5126,
			"count":1284,
			"max":[
				1.6919721364974976,
				2.2897653579711914,
				0.712045431137085
			],
			"min":[
				-1.3636280298233032,
				-0.29443463683128357,
				-2.101754665374756
			],
			"type":"VEC3"
		},
		{
			"bufferView":4,
			"componentType":5126,
			"count":1284,
			"type":"VEC3"
		},
		{
			"bufferView":5,
			"componentType":5123,
			"count":7680,
			"type":"SCALAR"
		},
		{
			"bufferView":6,
			"componentType":5126,
			"count":2568,
			"max":[
				1.5046721696853638,
				0.4216654598712921,
				1.8211455345153809
			],
			"min":[
				-2.0317277908325195,
				-1.880934715270996,
				-1.2049545049667358
			],
			"type":"VEC3"
		},
		{
			"bufferView":7,
			"componentType":5126,
			"count":2568,
			"type":"VEC3"
		},
		{
			"bufferView":8,
			"componentType":5123,
			"count":15360,
			"type":"SCALAR"
		},
		{
			"bufferView":9,
			"componentType":5126,
			"count":12204,
			"max":[
				1.3554720878601074,
				1.9532654285430908,
				1.6471455097198486
			],
			"min":[
				-1.8577278852462769,
				-1.7069346904754639,
				-1.7652544975280762
			],
			"type":"VEC3"
		},
		{
			"bufferView":10,
			"componentType":5126,
			"count":12204,
			"type":"VEC3"
		},
		{
			"bufferView":11,
			"componentType":5123,
			"count":71064,
			"type":"SCALAR"
		}
	],
	"bufferViews":[
		{
			"buffer":0,
			"byteLength":23112,
			"byteOffset":0,
			"target":34962
		},
		{
			"buffer":0,
			"byteLength":23112,
			"byteOffset":23112,
			"target":34962
		},
		{
			"buffer":0,
			"byteLength":23040,
			"byteOffset":46224,
			"target":34963
		},
		{
			"buffer":0,
			"byteLength":15408,
			"byteOffset":69264,
			"target":34962
		},
		{
			"buffer":0,
			"byteLength":15408,
			"byteOffset":84672,
			"target":34962
		},
		{
			"buffer":0,
			"byteLength":15360,
			"byteOffset":100080,
			"target":34963
		},
		{
			"buffer":0,
			"byteLength":30816,
			"byteOffset":115440,
			"target":34962
		},
		{
			"buffer":0,
			"byteLength":30816,
			"byteOffset":146256,
			"target":34962
		},
		{
			"buffer":0,
			"byteLength":30720,
			"byteOffset":177072,
			"target":34963
		},
		{
			"buffer":0,
			"byteLength":146448,
			"byteOffset":207792,
			"target":34962
		},
		{
			"buffer":0,
			"byteLength":146448,
			"byteOffset":354240,
			"target":34962
		},
		{
			"buffer":0,
			"byteLength":142128,
			"byteOffset":500688,
			"target":34963
		}
	],
	"buffers":[
		{
			"byteLength":642816,
			"uri":"data:application/octet-stream;base64,"
		}
	]
}
